<svg width="16" height="16" viewBox="0 0 16 16" fill="none" xmlns="http://www.w3.org/2000/svg">
<g id="interface/so-map">
<path id="Vector" d="M7.99999 14.6667C9.5876 14.0211 10.9444 12.913 11.8941 11.4864C12.8437 10.0597 13.3424 8.38043 13.3253 6.66667C13.3412 5.95714 13.2152 5.25158 12.9546 4.59142C12.694 3.93127 12.3042 3.32982 11.808 2.8224C11.3118 2.31497 10.7193 1.91179 10.0651 1.63653C9.41093 1.36127 8.70837 1.21948 7.99865 1.21948C7.28894 1.21948 6.58638 1.36127 5.93222 1.63653C5.27806 1.91179 4.68548 2.31497 4.18928 2.8224C3.69308 3.32982 3.30326 3.93127 3.04271 4.59142C2.78215 5.25158 2.65611 5.95714 2.67199 6.66667C2.6551 8.38074 3.15417 10.0602 4.10435 11.4869C5.05453 12.9136 6.41187 14.0215 7.99999 14.6667ZM6.66665 6.66667C6.66665 6.40296 6.74485 6.14518 6.89136 5.92591C7.03787 5.70665 7.24611 5.53575 7.48974 5.43483C7.73338 5.33392 8.00147 5.30751 8.26011 5.35896C8.51875 5.41041 8.75633 5.53739 8.9428 5.72386C9.12927 5.91033 9.25625 6.14791 9.3077 6.40655C9.35915 6.66519 9.33274 6.93328 9.23183 7.17692C9.13091 7.42055 8.96001 7.62879 8.74075 7.7753C8.52148 7.92181 8.2637 8.00001 7.99999 8.00001C7.64637 8.00001 7.30723 7.85953 7.05718 7.60948C6.80713 7.35943 6.66665 7.02029 6.66665 6.66667Z" fill="#AD2418"/>
</g>
</svg>
